<?xml version="1.0" standalone="no"?>
<!DOCTYPE svg PUBLIC "-//W3C//DTD SVG 20010904//EN"
 "http://www.w3.org/TR/2001/REC-SVG-20010904/DTD/svg10.dtd">
<svg version="1.0" xmlns="http://www.w3.org/2000/svg"
 width="260.000000pt" height="260.000000pt" viewBox="0 0 260.000000 260.000000"
 preserveAspectRatio="xMidYMid meet">
<metadata>
Created by potrace 1.11, written by Peter Selinger 2001-2013
</metadata>
<g transform="translate(0.000000,260.000000) scale(0.100000,-0.100000)"
fill="#000000" stroke="none">
<path d="M1084 2574 c-455 -76 -844 -399 -1004 -835 -54 -145 -74 -265 -73
-444 0 -174 12 -254 63 -407 126 -378 426 -681 805 -811 148 -51 266 -70 430
-69 355 1 662 128 910 377 190 191 304 400 361 667 25 115 25 371 1 488 -88
414 -338 738 -712 921 -129 63 -218 91 -360 114 -110 18 -311 18 -421 -1z
m376 -775 c206 -115 383 -220 392 -232 24 -32 30 -74 14 -111 -28 -67 -18 -66
-452 -66 l-392 0 -26 31 -26 31 0 250 0 250 29 29 c19 19 40 29 58 29 19 0
157 -72 403 -211z m376 -623 c42 -42 47 -97 13 -140 -15 -19 -133 -82 -368
-198 -405 -199 -410 -201 -451 -186 -55 19 -60 44 -60 282 l0 214 26 31 26 31
390 0 390 0 34 -34z"/>
</g>
</svg>
